<svg width="1152" height="362" viewBox="0 0 1152 362" fill="none" xmlns="http://www.w3.org/2000/svg">
<path d="M1138.32 232.684C1129.56 222.841 1117.46 215.25 1102.53 210.079C1088.1 204.991 1071.16 200.486 1052.22 196.649C1043.96 194.898 1036.54 193.146 1030.12 191.228C1028.45 190.727 1026.86 190.227 1025.36 189.809C1024.61 189.559 1023.86 189.309 1023.11 188.975L1022.52 188.809C1014.35 185.389 1009.09 179.8 1007.01 172.293C1004.92 164.869 1006.76 156.361 1011.93 149.688C1015.93 144.516 1023.28 138.26 1035.62 137.343C1062.07 136.342 1076.42 158.863 1077.84 174.211L1078.17 178.465L1143.32 178.799L1142.57 173.377C1139.07 148.854 1127.97 129.335 1109.79 115.322C1091.85 101.559 1067.41 94.6356 1036.62 94.6356C1014.77 94.8024 995.912 98.4726 980.645 105.563C964.961 112.82 952.865 122.746 944.689 134.924C936.43 147.186 932.259 161.282 932.343 176.881C932.343 189.81 935.346 200.903 941.019 209.662C946.608 218.337 954.283 225.51 963.627 231.015C972.72 236.354 983.148 240.775 994.744 244.278C1005.76 247.614 1017.44 250.451 1029.53 252.786C1036.87 254.287 1043.63 255.872 1049.55 257.457C1051.31 257.958 1066.74 262.879 1072.5 274.473C1075.25 279.979 1076.5 286.568 1073.91 293.658C1071.5 300.248 1066.07 305.586 1060.9 309.006C1055.64 312.51 1049.55 314.511 1042.8 314.929C1042.21 314.929 1041.63 314.929 1041.05 314.929C1012.76 314.929 998.915 291.49 996.913 276.392L996.663 274.39H925.585L925.919 276.976C927.671 292.657 933.344 307.004 942.687 319.516C952.615 332.695 966.38 343.122 983.732 350.546C1000.58 357.719 1020.61 361.389 1043.46 361.389H1044.21C1065.82 361.389 1084.93 357.636 1100.94 350.546C1117.04 343.372 1129.73 333.196 1138.65 320.267C1147.58 307.255 1152 292.324 1151.92 275.891C1151.92 257.29 1147.33 242.693 1138.4 232.6L1138.32 232.684Z" fill="#FF303B"/>
<path d="M891.298 156.611C880.703 137.76 865.77 122.579 846.916 111.652C828.228 100.725 806.121 95.1361 780.593 95.1361C754.731 95.3029 731.79 101.309 712.268 112.903C692.58 124.581 677.146 140.846 666.551 161.282C655.956 181.552 650.617 205.157 650.784 231.516C650.784 257.207 656.457 280.145 667.469 299.831C678.565 319.516 694.248 334.948 713.853 345.791C733.375 356.468 755.899 361.973 780.76 361.973H781.761C801.366 361.973 819.636 358.053 835.82 350.629C851.754 343.289 865.519 332.946 876.782 320.017C887.544 307.505 895.385 293.241 900.141 277.643L901.058 274.64H826.977L826.477 276.308C820.804 295.577 807.706 305.419 785.265 307.505C749.058 309.09 728.786 279.061 724.949 249.783L905.813 248.949L906.397 244.945C907.065 240.441 907.315 236.187 907.315 231.766V220.839C907.148 197.15 901.809 175.629 891.298 156.695V156.611ZM729.12 204.49C728.452 187.808 734.709 169.04 745.304 156.111C754.231 145.267 765.493 138.844 777.84 137.76C815.464 136.175 829.98 176.881 833.568 204.574H729.036L729.12 204.49Z" fill="#FF303B"/>
<path d="M463.746 5.38403H463.495C451.899 5.38403 442.222 9.22102 434.63 16.7282C427.039 24.2353 423.201 33.7443 423.285 45.0885C423.285 56.4326 427.205 65.9416 434.881 73.3654C442.472 80.7057 452.066 84.3758 463.579 84.3758H463.829C475.675 84.3758 485.519 80.5389 493.111 73.0317C500.703 65.608 504.54 56.0155 504.457 44.6714C504.457 33.3273 500.536 23.8182 492.861 16.3945C485.269 9.05419 475.508 5.38403 463.746 5.38403Z" fill="#FF303B"/>
<path d="M301.902 2.2144C271.285 98.3058 222.064 176.464 192.282 176.464C162.499 176.464 113.362 98.3058 82.7449 2.2144L82.2443 0.546143H0.154297V361.556H73.4013V157.279C111.526 215 151.487 244.195 192.365 244.195C233.076 244.195 272.953 215 311.162 157.362V361.556H384.409V0.546143H302.402L301.902 2.2144Z" fill="#FF303B"/>
<path d="M500.536 113.32H427.289V361.64H500.536V113.32Z" fill="#FF303B"/>
<path d="M617.164 0.629517H543.917V361.64H617.164V0.629517Z" fill="#FF303B"/>
</svg>
